<mxfile host="app.diagrams.net" modified="2022-08-01T10:03:29.918Z" agent="5.0 (Windows NT 10.0; Win64; x64) AppleWebKit/537.36 (KHTML, like Gecko) Chrome/103.0.0.0 Safari/537.36" etag="bN3l6klXJzVkP0bDgRb6" version="20.2.2" type="github">
  <diagram id="T9uuaTeBy4bPSP1g8a4x" name="Page-1">
    <mxGraphModel dx="595" dy="754" grid="1" gridSize="10" guides="1" tooltips="1" connect="1" arrows="1" fold="1" page="1" pageScale="1" pageWidth="827" pageHeight="1169" math="0" shadow="0">
      <root>
        <mxCell id="0" />
        <mxCell id="1" parent="0" />
        <mxCell id="_Cz1xnCZrCo9W7vdRbyF-1" value="" style="whiteSpace=wrap;html=1;verticalAlign=top;align=left;dashed=1;strokeColor=none;" vertex="1" parent="1">
          <mxGeometry x="870" y="30" width="620" height="570" as="geometry" />
        </mxCell>
        <mxCell id="GTCAQwFeK-3oEQe4TXUH-24" value="Organization Environment" style="whiteSpace=wrap;html=1;verticalAlign=top;align=left;dashed=1;" parent="1" vertex="1">
          <mxGeometry x="880" y="70" width="600" height="520" as="geometry" />
        </mxCell>
        <mxCell id="GTCAQwFeK-3oEQe4TXUH-21" value="Project Environment" style="whiteSpace=wrap;html=1;verticalAlign=top;align=left;dashed=1;" parent="1" vertex="1">
          <mxGeometry x="1030" y="210" width="430" height="360" as="geometry" />
        </mxCell>
        <mxCell id="WgbX4FKlPc8r-MKVr4ft-3" value="Project Organization" style="whiteSpace=wrap;html=1;verticalAlign=top;align=left;strokeWidth=2;" parent="1" vertex="1">
          <mxGeometry x="1120" y="290" width="240" height="260" as="geometry" />
        </mxCell>
        <mxCell id="WgbX4FKlPc8r-MKVr4ft-12" style="edgeStyle=orthogonalEdgeStyle;rounded=0;orthogonalLoop=1;jettySize=auto;html=1;exitX=0;exitY=0.5;exitDx=0;exitDy=0;entryX=1;entryY=0.5;entryDx=0;entryDy=0;fontColor=#FFFFFF;" parent="1" source="GTCAQwFeK-3oEQe4TXUH-20" target="GTCAQwFeK-3oEQe4TXUH-13" edge="1">
          <mxGeometry relative="1" as="geometry" />
        </mxCell>
        <mxCell id="GTCAQwFeK-3oEQe4TXUH-20" value="Project" style="whiteSpace=wrap;html=1;verticalAlign=top;align=left;strokeWidth=2;" parent="1" vertex="1">
          <mxGeometry x="1160" y="330" width="180" height="200" as="geometry" />
        </mxCell>
        <mxCell id="GTCAQwFeK-3oEQe4TXUH-15" style="edgeStyle=orthogonalEdgeStyle;rounded=0;orthogonalLoop=1;jettySize=auto;html=1;exitX=0.5;exitY=0;exitDx=0;exitDy=0;entryX=0.5;entryY=1;entryDx=0;entryDy=0;endArrow=none;endFill=0;strokeWidth=2;" parent="1" source="GTCAQwFeK-3oEQe4TXUH-4" target="GTCAQwFeK-3oEQe4TXUH-5" edge="1">
          <mxGeometry relative="1" as="geometry" />
        </mxCell>
        <mxCell id="GTCAQwFeK-3oEQe4TXUH-4" value="Operations" style="whiteSpace=wrap;html=1;" parent="1" vertex="1">
          <mxGeometry x="910" y="290" width="100" height="260" as="geometry" />
        </mxCell>
        <mxCell id="GTCAQwFeK-3oEQe4TXUH-16" style="edgeStyle=orthogonalEdgeStyle;rounded=0;orthogonalLoop=1;jettySize=auto;html=1;exitX=0.5;exitY=0;exitDx=0;exitDy=0;entryX=0;entryY=0.5;entryDx=0;entryDy=0;strokeWidth=2;" parent="1" source="GTCAQwFeK-3oEQe4TXUH-5" target="GTCAQwFeK-3oEQe4TXUH-6" edge="1">
          <mxGeometry relative="1" as="geometry" />
        </mxCell>
        <mxCell id="GTCAQwFeK-3oEQe4TXUH-5" value="Benefits&lt;span style=&quot;color: rgba(0, 0, 0, 0); font-family: monospace; font-size: 0px; text-align: start;&quot;&gt;%3CmxGraphModel%3E%3Croot%3E%3CmxCell%20id%3D%220%22%2F%3E%3CmxCell%20id%3D%221%22%20parent%3D%220%22%2F%3E%3CmxCell%20id%3D%222%22%20value%3D%22Operations%22%20style%3D%22whiteSpace%3Dwrap%3Bhtml%3D1%3B%22%20vertex%3D%221%22%20parent%3D%221%22%3E%3CmxGeometry%20x%3D%22100%22%20y%3D%22290%22%20width%3D%22100%22%20height%3D%22260%22%20as%3D%22geometry%22%2F%3E%3C%2FmxCell%3E%3C%2Froot%3E%3C%2FmxGraphModel%3E&lt;/span&gt;" style="whiteSpace=wrap;html=1;" parent="1" vertex="1">
          <mxGeometry x="920" y="150" width="80" height="40" as="geometry" />
        </mxCell>
        <mxCell id="GTCAQwFeK-3oEQe4TXUH-17" style="edgeStyle=orthogonalEdgeStyle;rounded=0;orthogonalLoop=1;jettySize=auto;html=1;exitX=1;exitY=0.5;exitDx=0;exitDy=0;entryX=0.5;entryY=0;entryDx=0;entryDy=0;endArrow=none;endFill=0;strokeWidth=2;" parent="1" source="GTCAQwFeK-3oEQe4TXUH-6" target="GTCAQwFeK-3oEQe4TXUH-7" edge="1">
          <mxGeometry relative="1" as="geometry" />
        </mxCell>
        <mxCell id="GTCAQwFeK-3oEQe4TXUH-6" value="Organizational Strategy" style="whiteSpace=wrap;html=1;" parent="1" vertex="1">
          <mxGeometry x="1010" y="100" width="170" height="40" as="geometry" />
        </mxCell>
        <mxCell id="GTCAQwFeK-3oEQe4TXUH-18" style="edgeStyle=orthogonalEdgeStyle;rounded=0;orthogonalLoop=1;jettySize=auto;html=1;exitX=0.5;exitY=1;exitDx=0;exitDy=0;entryX=0.5;entryY=0;entryDx=0;entryDy=0;endArrow=none;endFill=0;strokeWidth=2;" parent="1" source="GTCAQwFeK-3oEQe4TXUH-7" target="GTCAQwFeK-3oEQe4TXUH-8" edge="1">
          <mxGeometry relative="1" as="geometry" />
        </mxCell>
        <mxCell id="GTCAQwFeK-3oEQe4TXUH-7" value="Opportunities" style="whiteSpace=wrap;html=1;" parent="1" vertex="1">
          <mxGeometry x="1190" y="150" width="120" height="40" as="geometry" />
        </mxCell>
        <mxCell id="WgbX4FKlPc8r-MKVr4ft-11" style="edgeStyle=orthogonalEdgeStyle;rounded=0;orthogonalLoop=1;jettySize=auto;html=1;exitX=0.5;exitY=1;exitDx=0;exitDy=0;entryX=0.5;entryY=0;entryDx=0;entryDy=0;fontColor=#FFFFFF;strokeWidth=2;" parent="1" source="GTCAQwFeK-3oEQe4TXUH-8" target="GTCAQwFeK-3oEQe4TXUH-20" edge="1">
          <mxGeometry relative="1" as="geometry" />
        </mxCell>
        <mxCell id="GTCAQwFeK-3oEQe4TXUH-8" value="Business Case" style="whiteSpace=wrap;html=1;" parent="1" vertex="1">
          <mxGeometry x="1190" y="230" width="120" height="40" as="geometry" />
        </mxCell>
        <mxCell id="GTCAQwFeK-3oEQe4TXUH-9" value="Project Governance" style="whiteSpace=wrap;html=1;" parent="1" vertex="1">
          <mxGeometry x="1330" y="230" width="120" height="40" as="geometry" />
        </mxCell>
        <mxCell id="GTCAQwFeK-3oEQe4TXUH-10" value="PM Processes" style="whiteSpace=wrap;html=1;" parent="1" vertex="1">
          <mxGeometry x="1200" y="370" width="120" height="40" as="geometry" />
        </mxCell>
        <mxCell id="GTCAQwFeK-3oEQe4TXUH-11" value="Support Processes" style="whiteSpace=wrap;html=1;" parent="1" vertex="1">
          <mxGeometry x="1200" y="420" width="120" height="40" as="geometry" />
        </mxCell>
        <mxCell id="GTCAQwFeK-3oEQe4TXUH-12" value="Product Processes" style="whiteSpace=wrap;html=1;" parent="1" vertex="1">
          <mxGeometry x="1200" y="470" width="120" height="40" as="geometry" />
        </mxCell>
        <mxCell id="GTCAQwFeK-3oEQe4TXUH-13" value="Deliverables" style="whiteSpace=wrap;html=1;" parent="1" vertex="1">
          <mxGeometry x="1000" y="410" width="130" height="40" as="geometry" />
        </mxCell>
        <mxCell id="WgbX4FKlPc8r-MKVr4ft-10" value="External Environment" style="text;html=1;align=left;verticalAlign=middle;resizable=0;points=[];autosize=1;strokeColor=none;fillColor=none;fontColor=#000000;" parent="1" vertex="1">
          <mxGeometry x="880" y="40" width="140" height="30" as="geometry" />
        </mxCell>
      </root>
    </mxGraphModel>
  </diagram>
</mxfile>
